<svg xmlns="http://www.w3.org/2000/svg" width="64" height="64" viewBox="0 0 64 64">
  <defs>
    <linearGradient id="bg" x1="12" y1="8" x2="56" y2="60" gradientUnits="userSpaceOnUse">
      <stop stop-color="#0B1220"/>
      <stop offset="1" stop-color="#111F3A"/>
    </linearGradient>
    <linearGradient id="accent" x1="18" y1="18" x2="48" y2="48" gradientUnits="userSpaceOnUse">
      <stop stop-color="#F5C84C"/>
      <stop offset="1" stop-color="#F59E0B"/>
    </linearGradient>
    <linearGradient id="glow" x1="44" y1="10" x2="60" y2="26" gradientUnits="userSpaceOnUse">
      <stop stop-color="#FDE68A" stop-opacity="0.85"/>
      <stop offset="1" stop-color="#F59E0B" stop-opacity="0"/>
    </linearGradient>
    <filter id="soft" x="-20%" y="-20%" width="140%" height="140%">
      <feGaussianBlur stdDeviation="0.6"/>
    </filter>
  </defs>

  <rect x="4" y="4" width="56" height="56" rx="14" fill="url(#bg)"/>

  <path d="M12 24H22M12 24V16H28" stroke="#94A3B8" stroke-opacity="0.28" stroke-width="2" stroke-linecap="round"/>
  <path d="M52 40H42M52 40V48H36" stroke="#94A3B8" stroke-opacity="0.22" stroke-width="2" stroke-linecap="round"/>
  <circle cx="28" cy="16" r="2" fill="#94A3B8" fill-opacity="0.3"/>
  <circle cx="36" cy="48" r="2" fill="#94A3B8" fill-opacity="0.24"/>

  <path d="M18 22H46L18 44H46" fill="none" stroke="url(#accent)" stroke-width="5.5" stroke-linecap="round" stroke-linejoin="round"/>
  <path d="M43 22V38C43 43 40 46 34.5 46C30.5 46 27.5 44.2 26 41.5" fill="none" stroke="url(#accent)" stroke-width="5.5" stroke-linecap="round" stroke-linejoin="round" opacity="0.92"/>

  <path d="M54 10C52.3 13.2 49.8 15.7 46.6 17.4C49.8 19.1 52.3 21.6 54 24.8C55.7 21.6 58.2 19.1 61.4 17.4C58.2 15.7 55.7 13.2 54 10Z" fill="#FDE68A" fill-opacity="0.9" filter="url(#soft)"/>
  <circle cx="54" cy="17" r="10" fill="url(#glow)"/>
</svg>
